<svg id="Layer_1" data-name="Layer 1" xmlns="http://www.w3.org/2000/svg" viewBox="0 0 999 403.45"><defs><style>.cls-1{fill:#182c61;}.cls-1,.cls-2,.cls-3{stroke:#fff;stroke-miterlimit:10;}.cls-2,.cls-3,.cls-4{fill:#fff;}.cls-2{stroke-width:0.75px;}.cls-3{stroke-width:5px;}.cls-4{font-size:300px;font-family:Avenir-Book, Avenir;}.cls-5{letter-spacing:-0.07em;}</style></defs><rect class="cls-1" x="0.5" y="0.5" width="998" height="401" rx="21.19"/><path class="cls-2" d="M701.72,512.19a4.69,4.69,0,0,0-4.82.23l-20.83,13.9v-10a4.69,4.69,0,0,0-4.69-4.69H605.76c-13.67,0-14.07,33.67-14.07,37.5s.4,37.5,14.07,37.5h65.62a4.69,4.69,0,0,0,4.69-4.68V572l20.84,13.9a4.68,4.68,0,0,0,7.28-3.9V516.32A4.68,4.68,0,0,0,701.72,512.19Z" transform="translate(-439.79 -337.99)"/><path class="cls-3" d="M647.94,436.63a112.5,112.5,0,1,0,112.5,112.5A112.63,112.63,0,0,0,647.94,436.63Zm0,215.63A103.13,103.13,0,1,1,751.07,549.13,103.25,103.25,0,0,1,647.94,652.26Z" transform="translate(-439.79 -337.99)"/><text class="cls-4" transform="translate(332.13 317.05)">C<tspan class="cls-5" x="211.2" y="0">T</tspan><tspan x="363" y="0">A</tspan></text></svg>